<svg xmlns="http://www.w3.org/2000/svg" viewBox="0 0 40 50" x="0px" y="0px"><path fill="#000000" d="M135.182589,15.8916344 C135.960676,16.0353715 136.271525,16.9830231 135.72975,17.5597026 L129.092786,24.6242562 L130.367268,34.2436531 C130.470846,35.02543 129.671006,35.6138806 128.955487,35.2823145 L120.000931,31.1328411 L111.046375,35.2823145 C110.330748,35.6139307 109.530828,35.025258 109.634629,34.2433905 L110.911669,24.6242576 L104.272245,17.5598446 C103.730313,16.9832226 104.041081,16.03543 104.819226,15.8916432 L114.370982,14.1266553 L119.125533,5.51659733 C119.505943,4.82771013 120.49619,4.82782435 120.876441,5.51679928 L125.628288,14.1266546 L135.182589,15.8916344 Z M124.79973,16.0074332 C124.505218,15.9530275 124.250595,15.7694834 124.105878,15.5072721 L120.000692,8.06910093 L115.893156,15.5074746 C115.748426,15.7695669 115.493877,15.9530227 115.199463,16.0074249 L106.984534,17.5253919 L112.694128,23.6004576 C112.899853,23.8193507 112.996278,24.11913 112.956745,24.4169117 L111.856747,32.7024963 L119.580487,29.1233737 C119.847163,28.9997981 120.1547,28.9997981 120.421375,29.1233737 L128.145633,32.7027364 L127.047803,24.4166477 C127.008369,24.1190151 127.104749,23.8194141 127.310321,23.6005982 L133.017674,17.5255459 L124.79973,16.0074332 Z" transform="translate(-100)"/><text x="0" y="55" fill="#000000" font-size="5px" font-weight="bold" font-family="'Helvetica Neue', Helvetica, Arial-Unicode, Arial, Sans-serif">Created by K Ξ L L Ξ R</text><text x="0" y="60" fill="#000000" font-size="5px" font-weight="bold" font-family="'Helvetica Neue', Helvetica, Arial-Unicode, Arial, Sans-serif">from the Noun Project</text></svg>