<svg xmlns="http://www.w3.org/2000/svg" xmlns:xlink="http://www.w3.org/1999/xlink" version="1.1" x="0px" y="0px" viewBox="0 0 100 125" style="enable-background:new 0 0 100 100;" xml:space="preserve"><style type="text/css">
	.st0{fill:#FFFFFF;}
	.st1{fill:#AB218E;}
	.st2{fill:#231F20;}
	.st3{fill:#E19B39;}
	.st4{fill:#C5244A;}
	.st5{fill:#008B58;}
	.st6{fill:none;stroke:#000000;stroke-width:0.5;stroke-linecap:round;stroke-linejoin:round;}
	.st7{fill:#A48C4B;}
	.st8{fill:none;}
	.st9{fill-rule:evenodd;clip-rule:evenodd;fill:#231F20;}
	.st10{fill:#009BD0;}
</style><path d="M89.9,48.9c-12.3-7.1-24.5-14.2-36.8-21.2c-0.8-0.5-1.9,0.1-1.9,1.1c0,14.2,0,28.3,0,42.5c0,0.5,0.3,0.9,0.6,1.1  c0.3,0.2,0.8,0.3,1.2,0c12.3-7.1,24.5-14.2,36.8-21.2C90.7,50.6,90.7,49.4,89.9,48.9z"/><path d="M48.2,48.9c-12.3-7.1-24.5-14.2-36.8-21.2c-0.8-0.5-1.9,0.1-1.9,1.1c0,14.2,0,28.3,0,42.5c0,0.5,0.3,0.9,0.6,1.1  c0.3,0.2,0.8,0.3,1.2,0c12.3-7.1,24.5-14.2,36.8-21.2C49,50.6,49,49.4,48.2,48.9z"/><text x="0" y="115" fill="#000000" font-size="5px" font-weight="bold" font-family="'Helvetica Neue', Helvetica, Arial-Unicode, Arial, Sans-serif">Created by Daria Szymonowicz</text><text x="0" y="120" fill="#000000" font-size="5px" font-weight="bold" font-family="'Helvetica Neue', Helvetica, Arial-Unicode, Arial, Sans-serif">from the Noun Project</text></svg>