<svg xmlns="http://www.w3.org/2000/svg" data-name="Layer 1" viewBox="0 0 100 125" x="0px" y="0px"><title>heart 2k18</title><path d="M97.49,21.75A26.93,26.93,0,0,0,73,6a27.65,27.65,0,0,0-19.5,8.2c-1.2,1.2-2.3,2.5-3.7,4-1.5-1.6-2.7-3.1-4.1-4.4-5.4-5.3-11.6-7.9-18.4-7.9a27.83,27.83,0,0,0-7.6,1A26.62,26.62,0,0,0,0,32.45c-.1,8.1,3.1,14.9,8.8,20.5,9.8,9.9,19.7,19.8,29.6,29.6,3.8,3.8,7.6,7.6,11.5,11.6.5-.5.8-.7,1.1-1l40.2-40.2a26.06,26.06,0,0,0,2.7-3.1C100.29,41.15,102,31.65,97.49,21.75Zm-9.3,23.9a22.53,22.53,0,0,1-2.1,2.4l-35.7,35.7-.5.5-6.6-6.6L33,67.35c-6.3-6.3-12.9-12.8-19.3-19.3-4.5-4.6-6.7-9.7-6.7-15.5a19.48,19.48,0,0,1,14.4-18.8,23.31,23.31,0,0,1,5.9-.8c5,0,9.5,1.9,13.6,5.9a29.6,29.6,0,0,1,2.3,2.5c.5.5,1,1.1,1.5,1.6l5.1,5.5L55,23l1.4-1.5c.8-.9,1.5-1.6,2.2-2.3A20.65,20.65,0,0,1,73,13a19.89,19.89,0,0,1,18.1,11.7C94.29,31.75,93.39,38.65,88.19,45.65Z"/><text x="0" y="115" fill="#000000" font-size="5px" font-weight="bold" font-family="'Helvetica Neue', Helvetica, Arial-Unicode, Arial, Sans-serif">Created by i cons</text><text x="0" y="120" fill="#000000" font-size="5px" font-weight="bold" font-family="'Helvetica Neue', Helvetica, Arial-Unicode, Arial, Sans-serif">from the Noun Project</text></svg>