<svg xmlns="http://www.w3.org/2000/svg" xmlns:xlink="http://www.w3.org/1999/xlink" version="1.1" x="0px" y="0px" viewBox="0 0 50 62.5" enable-background="new 0 0 50 50" xml:space="preserve"><g><path d="M7,18.8c-4.6,3.6-5.3,7.9-5.3,10.2S2.4,35.5,7,39.1c0.4,0.3,1.1,0.3,1.4-0.2c0.3-0.4,0.3-1.1-0.2-1.4   c-3.9-3.1-4.5-6.7-4.5-8.6s0.6-5.5,4.5-8.6c0.4-0.3,0.5-1,0.2-1.4C8,18.5,7.4,18.4,7,18.8z"/><path d="M9.9,36.7c0.4,0.3,1.1,0.3,1.4-0.2c0.3-0.4,0.3-1.1-0.2-1.4c-2.9-2.3-3.3-4.9-3.3-6.2s0.4-4,3.3-6.2c0.4-0.3,0.5-1,0.2-1.4   c-0.3-0.4-1-0.5-1.4-0.2c-3.5,2.8-4.1,6.1-4.1,7.8S6.4,34,9.9,36.7z"/><path d="M12.9,34.4c0.4,0.3,1.1,0.3,1.4-0.2c0.3-0.4,0.3-1.1-0.2-1.4c-1.8-1.4-2.1-3.1-2.1-3.9s0.3-2.5,2.1-3.9   c0.4-0.3,0.5-1,0.2-1.4s-1-0.5-1.4-0.2c-2.5,2-2.8,4.3-2.8,5.5S10.4,32.5,12.9,34.4z"/><path d="M39.3,39.4c-0.2-8.5,4-11.2,4.2-11.4c0.1,0,0.1-0.1,0.2-0.1c3-3,4.6-6.9,4.6-11.2c0-4.2-1.6-8.2-4.6-11.2   c-6.2-6.1-16.2-6.1-22.3,0c-2.5,2.5-4,5.6-4.5,9.1c-0.1,1-0.9,1.7-1.8,1.7h0c-0.6,0-1,0.4-1,1s0.5,1,1,1c1.9,0,3.6-1.5,3.8-3.4   c0.4-3,1.7-5.8,3.9-7.9c5.4-5.4,14.1-5.4,19.5,0c2.6,2.6,4,6.1,4,9.7c0,3.6-1.4,7.1-4,9.7c-0.8,0.5-5.2,4-5,13   c0.1,1.9-0.7,3.8-2.1,5.2c-1.4,1.5-3.4,2.3-5.5,2.3c-4.2,0-7.5-3.4-7.5-7.5c0-0.6-0.4-1-1-1s-1,0.4-1,1c0,5.3,4.3,9.5,9.5,9.5   c2.6,0,5.1-1.1,6.9-2.9C38.5,44.3,39.4,41.9,39.3,39.4z"/><path d="M22.8,31.7c-0.6,0-1,0.4-1,1s0.4,1,1,1c3.2,0,5.7-3.6,5.7-6.7c0-2.8-2-6.2-4.6-6.9l0.4-4.4c0.2-1.8,1.1-3.5,2.4-4.8   c1.6-1.6,3.7-2.4,5.9-2.4c2.2,0,4.3,0.9,5.9,2.4c3.2,3.2,3.3,8.3,0.2,11.6c-0.4,0.4-0.4,1,0.1,1.4c0.4,0.4,1,0.4,1.4-0.1   c3.8-4.1,3.7-10.4-0.3-14.4c-2-2-4.6-3-7.3-3c-2.8,0-5.4,1.1-7.3,3c-1.6,1.6-2.6,3.7-2.9,6l-0.4,5.4c0,0.3,0.1,0.6,0.3,0.8   s0.5,0.3,0.7,0.3c1.9,0,3.7,2.8,3.7,5.1C26.5,29.1,24.8,31.7,22.8,31.7z"/></g><text x="0" y="65" fill="#000000" font-size="5px" font-weight="bold" font-family="'Helvetica Neue', Helvetica, Arial-Unicode, Arial, Sans-serif">Created by Vectors Point</text><text x="0" y="70" fill="#000000" font-size="5px" font-weight="bold" font-family="'Helvetica Neue', Helvetica, Arial-Unicode, Arial, Sans-serif">from the Noun Project</text></svg>