<svg xmlns="http://www.w3.org/2000/svg" xmlns:xlink="http://www.w3.org/1999/xlink" version="1.1" x="0px" y="0px" viewBox="0 0 210.08 309.48125" style="enable-background:new 0 0 210.08 247.585;" xml:space="preserve"><g><path d="M22.018,65.213v13.57c8.421-8.271,15.927-10.077,16.301-10.164c0.595-0.148,1.258-0.244,1.948-0.275   c0.713-0.161,1.422-0.241,2.115-0.241h38.634c2.958,0,5.711,1.322,7.572,3.63c0.518,0.52,0.967,1.087,1.345,1.682   c0.105,0.161,0.217,0.325,0.381,0.545c0.362,0.498,0.97,1.291,1.833,2.282c1.633,1.874,4.427,4.742,8.459,7.756   c0.135,0.101,0.276,0.195,0.412,0.294V65.213c0-2.209-1.791-4-4-4H72.187c-2.438,1.639-5.167,2.857-8.114,3.543   c-1.834,0.428-3.711,0.645-5.578,0.645c-5.055,0-9.786-1.526-13.721-4.188H26.018C23.809,61.213,22.018,63.004,22.018,65.213z"/><rect x="61.381" y="155.949" width="0.771" height="16.444"/><path d="M101.018,107.677c-3.963-2.011-7.39-4.115-10.273-6.132v23.873c0.009,0.063,0.011,0.117,0.019,0.179   c3.145-3.123,6.576-5.956,10.254-8.454V107.677z"/><path d="M32.652,127.282V96.889c-3.639,4.731-7.702,12.155-10.634,23.557v47.947c0,2.209,1.791,4,4,4h6.634v-26.169V127.282z"/><path d="M90.639,77.553c-0.906-1.041-1.55-1.877-1.938-2.413c-0.195-0.267-0.327-0.459-0.397-0.566   c-0.037-0.052-0.059-0.086-0.059-0.086l-0.004-0.005c-0.334-0.529-0.724-1-1.15-1.423c-1.415-1.8-3.607-2.959-6.074-2.959H42.382   c-0.642,0-1.262,0.087-1.858,0.234c-0.581,0.015-1.169,0.087-1.757,0.235c-1.092,0.25-8.656,2.488-16.748,11.071   c-1.152,1.222-2.315,2.572-3.472,4.064C9.244,97.662,0.674,118.205,0.002,152.743c-0.089,4.417,3.421,8.071,7.841,8.16   c0.053,0.001,0.106,0.001,0.158,0.001c4.346,0.001,7.913-3.477,7.998-7.841c0.357-17.346,2.795-30.201,6.02-39.729   c2.748-8.119,6.066-13.823,9.16-17.811c1.197-1.538,2.365-2.82,3.475-3.909v35.669v18.94v26.171v62.829   c0,6.828,5.537,12.363,12.365,12.363c6.826,0,12.363-5.535,12.363-12.363v-62.829v-18.444h4.771v18.444v62.829   c0,6.828,5.537,12.363,12.365,12.363c6.826,0,12.363-5.535,12.363-12.363v-10.517c-11.894-12.738-19.193-29.817-19.193-48.578   c0-1.253,0.034-2.497,0.099-3.734c0.897-17.287,7.996-32.954,19.095-44.841v-0.27c0-0.593-0.057-1.171-0.137-1.741V97.578   c0.359,0.278,0.709,0.556,1.083,0.835c3.168,2.374,6.892,4.781,11.19,7.026c3.582,1.871,7.572,3.626,11.966,5.16   c8.588-3.677,18.036-5.72,27.954-5.72c1.833,0,3.643,0.092,5.441,0.229c-1.048-2.811-3.631-4.916-6.816-5.185   c-17.972-1.535-30.343-7.433-38.545-13.163c-0.556-0.389-1.094-0.776-1.612-1.162C95.337,82.557,92.459,79.642,90.639,77.553z"/><path d="M36.609,46.003c1.616,6.939,6.284,12.368,12.252,15.21c4.439,2.114,9.596,2.799,14.757,1.598   c1.608-0.375,3.133-0.917,4.566-1.598c9.35-4.439,14.685-14.922,12.243-25.413c-0.349-1.5-0.842-2.928-1.459-4.276   c0.658-0.207,1.287-0.427,1.885-0.659c4.026-1.564,6.747-3.646,8.497-5.406c-1.634,0.472-3.671,0.825-6.252,1.086   c-1.389,0.141-2.907,0.249-4.489,0.344c-0.778,0.047-1.576,0.091-2.391,0.131c-1.383,0.069-2.796,0.134-4.255,0.197   c-2.79,0.121-5.672,0.248-8.659,0.436c-10.749,0.674-18.319,0.995-23.697,1.076c-0.834,0.013-1.622,0.02-2.354,0.021   c-8.966,0.018-10.486-0.771-11.107-1.597c-0.644,1.648-0.075,4.157,4.259,6.523c1.082,0.591,2.563,1.01,4.339,1.293   c0.633,0.101,1.302,0.186,2.007,0.253C35.857,38.642,35.752,42.322,36.609,46.003z"/><path d="M140.938,106.988c-8.771,0-17.152,1.65-24.873,4.629c-0.96,0.371-1.912,0.759-2.851,1.171   c-4.315,1.892-8.396,4.212-12.196,6.906c-3.659,2.593-7.053,5.531-10.138,8.769c-0.682,0.716-1.348,1.445-1.999,2.19   C79.017,141.934,72.75,156.44,71.9,172.393c-0.066,1.237-0.103,2.482-0.103,3.736c0,17.419,6.455,33.32,17.085,45.478   c0.651,0.744,1.317,1.474,1.999,2.189c12.594,13.222,30.356,21.475,50.058,21.475c38.187,0,69.142-30.955,69.142-69.142   c0-35.502-26.761-64.737-61.208-68.675c-0.669-0.077-1.342-0.14-2.017-0.197C144.903,107.091,142.933,106.988,140.938,106.988z    M140.938,232.7c-21.727,0-40.581-12.253-50.058-30.22c-0.719-1.363-1.391-2.754-1.999-4.18   c-2.903-6.809-4.514-14.302-4.514-22.171c0-1.257,0.056-2.5,0.136-3.736c0.425-6.506,1.938-12.714,4.378-18.435   c0.608-1.426,1.28-2.817,1.999-4.18c2.681-5.082,6.103-9.71,10.138-13.729c10.23-10.189,24.338-16.49,39.92-16.49   c31.244,0,56.57,25.326,56.57,56.57C197.508,207.373,172.182,232.7,140.938,232.7z"/><path d="M107.607,142.791l26.665,40.004l39.996,26.67l-26.664-40.003L107.607,142.791z M144.271,179.462   c-1.842,1.841-4.824,1.841-6.666,0c-1.842-1.842-1.842-4.824,0-6.667c1.842-1.841,4.824-1.841,6.666,0   C146.112,174.638,146.112,177.621,144.271,179.462z"/><path d="M137.796,127.103v16.34c0,0.694,0.564,1.258,1.258,1.258h3.769c0.693,0,1.259-0.564,1.259-1.258v-16.34   c0-0.694-0.566-1.259-1.259-1.259h-3.769C138.36,125.844,137.796,126.409,137.796,127.103z"/><path d="M144.081,225.156v-16.34c0-0.694-0.566-1.259-1.259-1.259h-3.769c-0.693,0-1.258,0.564-1.258,1.259v16.34   c0,0.694,0.564,1.258,1.258,1.258h3.769C143.515,226.414,144.081,225.85,144.081,225.156z"/><path d="M191.222,178.013v-3.769c0-0.7-0.564-1.258-1.258-1.258h-16.34c-0.694,0-1.259,0.558-1.259,1.258v3.769   c0,0.693,0.564,1.259,1.259,1.259h16.34C190.659,179.272,191.222,178.707,191.222,178.013z"/><path d="M109.509,178.013v-3.769c0-0.7-0.563-1.258-1.258-1.258h-16.34c-0.438,0-0.806,0.236-1.031,0.576   c-0.132,0.198-0.228,0.423-0.228,0.682v3.769c0,0.256,0.096,0.48,0.228,0.68c0.226,0.341,0.593,0.579,1.031,0.579h16.34   C108.946,179.272,109.509,178.707,109.509,178.013z"/><path d="M38.569,26.732c0.814-0.009,1.656-0.023,2.518-0.042c7.138-0.157,15.719-0.634,22.094-1.033   c3.991-0.25,7.825-0.393,11.35-0.555c0.889-0.041,1.763-0.083,2.608-0.128c7.134-0.381,12.643-0.988,14.902-3.024   c-6.115-1.076-16.309-1.219-16.309-1.219s-0.515-17.96-6.461-19.968c-5.947-2.008-8.296,0.58-13.516,0.587   C50.536,1.356,42.063,2.737,40.7,7.314c-1.364,4.574,0.508,12.738-3.935,15.276c-4.441,2.54-7.765,0.656-9.105,2.881   C27.029,26.517,31.866,26.807,38.569,26.732z"/></g><text x="0" y="262.58500000000004" fill="#000000" font-size="5px" font-weight="bold" font-family="'Helvetica Neue', Helvetica, Arial-Unicode, Arial, Sans-serif">Created by Gan Khoon Lay</text><text x="0" y="267.58500000000004" fill="#000000" font-size="5px" font-weight="bold" font-family="'Helvetica Neue', Helvetica, Arial-Unicode, Arial, Sans-serif">from the Noun Project</text></svg>