<svg height='100px' width='100px'  fill="#000000" xmlns="http://www.w3.org/2000/svg" xmlns:xlink="http://www.w3.org/1999/xlink" viewBox="0 0 72 72" version="1.1" x="0px" y="0px"><title>Handicapped</title><desc>Created with Sketch.</desc><g stroke="none" stroke-width="1" fill="none" fill-rule="evenodd"><path d="M27.2549,15.726 L27.9089,27.346 L42.7229,27.351 L42.7229,32.779 L28.4529,32.773 L28.7249,36.441 L48.4349,36.309 L56.8469,55.731 L63.2349,53.425 L65.0039,57.634 L53.5879,62.111 L44.8939,41.739 L23.6939,41.733 L21.6369,12.77 C21.1849,11.935 20.9139,10.942 20.9139,9.972 C20.9139,6.79 23.5089,4.195 26.6909,4.195 C29.8719,4.195 32.4679,6.79 32.4679,9.972 C32.4679,12.928 30.1889,15.455 27.2549,15.726 Z M48.5752,57.2626 C44.9972,64.3356 37.5092,68.9946 29.5202,68.9946 C17.7882,68.9946 8.2202,59.4266 8.2202,47.6936 C8.2202,39.4556 13.2122,31.8006 20.6622,28.4076 L21.1432,34.6986 C16.7372,37.4756 14.0212,42.4856 14.0212,47.7366 C14.0212,56.2476 20.9632,63.1896 29.4732,63.1896 C37.2612,63.1896 43.9002,57.2136 44.8052,49.5476 L48.5752,57.2626 Z" fill="#000000"></path></g></svg>