<svg xmlns="http://www.w3.org/2000/svg" data-name="Layer 1" viewBox="0 0 32 40" x="0px" y="0px"><title>Artboard 95</title><path d="M16,8a3.52,3.52,0,1,0-3.52-3.51A3.52,3.52,0,0,0,16,8Zm0-4.69a1.18,1.18,0,1,1-1.17,1.18A1.17,1.17,0,0,1,16,3.34Zm11.48,9a3.51,3.51,0,0,0-1.67.42l-3.65-2.41a7,7,0,0,0-3.88-1.18H13.65A7,7,0,0,0,9.8,10.29L6.12,12.7a3.47,3.47,0,0,0-1.6-.39A3.52,3.52,0,1,0,8,15.82a3.35,3.35,0,0,0-.29-1.38l3.34-2.19a4.87,4.87,0,0,1,1.4-.62v6.55L10.16,24a3.52,3.52,0,1,0,2.28.62l2-5h3.09l2,5.07A3.51,3.51,0,1,0,21.76,24l-2.24-5.79V11.66a4.68,4.68,0,0,1,1.35.61l3.36,2.23A3.45,3.45,0,0,0,24,15.82a3.52,3.52,0,1,0,3.51-3.51ZM4.52,17a1.18,1.18,0,1,1,1.17-1.18A1.18,1.18,0,0,1,4.52,17Zm5.91,11.66a1.18,1.18,0,1,1,1.18-1.18A1.18,1.18,0,0,1,10.43,28.66Zm4.4-17.17h2.34v5.74H14.83Zm7.91,16a1.18,1.18,0,1,1-1.17-1.17A1.18,1.18,0,0,1,22.74,27.48ZM27.48,17a1.18,1.18,0,1,1,1.18-1.18A1.18,1.18,0,0,1,27.48,17Z"/><text x="0" y="47" fill="#000000" font-size="5px" font-weight="bold" font-family="'Helvetica Neue', Helvetica, Arial-Unicode, Arial, Sans-serif">Created by Adib Muhammad</text><text x="0" y="52" fill="#000000" font-size="5px" font-weight="bold" font-family="'Helvetica Neue', Helvetica, Arial-Unicode, Arial, Sans-serif">from the Noun Project</text></svg>